<svg xmlns="http://www.w3.org/2000/svg" fill="none" viewBox="0 0 24 24" id="Woocommerce--Streamline-Svg-Logos" height="24" width="24">
  <desc>
    Woocommerce Streamline Icon: https://streamlinehq.com
  </desc>
  <path fill="#7f54b3" fill-rule="evenodd" d="M7.468275 9.63085H0.988795c-0.410055 0 -0.74200225 0.3352 -0.7387725 0.742v2.47335c0 0.41005 0.3319725 0.742 0.742025 0.742H4.060925l1.40265 0.78105 -0.318925 -0.78105h2.323625c0.410075 0 0.742 -0.33195 0.742 -0.742v-2.47335c0 -0.41005 -0.331925 -0.742 -0.742 -0.742ZM0.852125 10.203625c-0.091125 0.006525 -0.1594675 0.03905 -0.20503 0.1009 -0.04556 0.058575 -0.06183 0.133425 -0.05207 0.218025 0.19201 1.220425 0.371 2.043775 0.536975 2.4701 0.06509 0.1562 0.13994 0.231075 0.22781 0.22455 0.1366825 -0.009775 0.2994 -0.198525 0.49141 -0.56625 0.100885 -0.2083 0.2570975 -0.5207 0.4686325 -0.937275 0.17573 0.615075 0.4165475 1.0772 0.7192225 1.386375 0.084625 0.08785 0.172475 0.1269 0.257075 0.1204 0.074875 -0.0065 0.13345 -0.045575 0.1725 -0.117175 0.03255 -0.061825 0.04555 -0.133425 0.03905 -0.214775 -0.019525 -0.29615 0.009775 -0.70945 0.091125 -1.239925 0.0846 -0.546725 0.18875 -0.940525 0.315675 -1.174825 0.02605 -0.048825 0.0358 -0.09765 0.03255 -0.156225 -0.0065 -0.07485 -0.03905 -0.136675 -0.100875 -0.1855 -0.06185 -0.0488 -0.1302 -0.071575 -0.20505 -0.065075 -0.094375 0.0065 -0.165975 0.052075 -0.214775 0.1432 -0.201775 0.367725 -0.344975 0.9633 -0.429575 1.7899 -0.123675 -0.312425 -0.227825 -0.680175 -0.309175 -1.113 -0.0358 -0.192 -0.12365 -0.283125 -0.266865 -0.273375 -0.09763 0.006525 -0.1789875 0.0716 -0.244075 0.195275L1.46395 12.166025c-0.11716 -0.471875 -0.22781 -1.0479 -0.328695 -1.728075 -0.02278 -0.169225 -0.11716 -0.24735 -0.28313 -0.234325Zm6.2712 0.234325c0.231075 0.048825 0.40355 0.1725 0.5207 0.377525 0.10415 0.175725 0.1562 0.387275 0.1562 0.6411 0 0.3352 -0.0846 0.641125 -0.253825 0.921 -0.195275 0.32545 -0.4491 0.48815 -0.764775 0.48815 -0.055325 0 -0.1139 -0.0065 -0.17575 -0.019525 -0.23105 -0.0488 -0.403525 -0.172475 -0.5207 -0.3775 -0.104125 -0.179 -0.1562 -0.393775 -0.1562 -0.644375 0 -0.3352 0.084625 -0.641125 0.253825 -0.917725 0.198525 -0.32545 0.452375 -0.488175 0.7648 -0.488175 0.055325 0 0.1139 0.006525 0.175725 0.019525Zm-0.136675 1.760625c0.120425 -0.1074 0.201775 -0.26685 0.24735 -0.48165 0.013 -0.07485 0.02275 -0.1562 0.02275 -0.240825 0 -0.094375 -0.019525 -0.19525 -0.058575 -0.29615 -0.0488 -0.126925 -0.1139 -0.19525 -0.192 -0.211525 -0.11715 -0.022775 -0.23105 0.0423 -0.33845 0.201775 -0.087875 0.12365 -0.1432 0.253825 -0.1725 0.387275 -0.016275 0.07485 -0.022775 0.1562 -0.022775 0.237575 0 0.094375 0.019525 0.19525 0.058575 0.296125 0.048825 0.126925 0.1139 0.195275 0.192025 0.21155 0.08135 0.01625 0.1692 -0.019525 0.2636 -0.10415Zm-1.383125 -1.3831c-0.117175 -0.205025 -0.2929 -0.3287 -0.5207 -0.377525 -0.06185 -0.013 -0.1204 -0.019525 -0.17575 -0.019525 -0.3124 0 -0.56625 0.162725 -0.764775 0.488175 -0.169225 0.2766 -0.253825 0.582525 -0.253825 0.917725 0 0.2506 0.052075 0.465375 0.1562 0.644375 0.11715 0.205025 0.28965 0.3287 0.5207 0.3775 0.061825 0.013025 0.1204 0.019525 0.17575 0.019525 0.315675 0 0.5695 -0.1627 0.76475 -0.48815 0.16925 -0.279875 0.25385 -0.5858 0.25385 -0.921 0 -0.253825 -0.052075 -0.465375 -0.1562 -0.6411Zm-0.410075 0.90145c-0.045525 0.2148 -0.1269 0.37425 -0.247325 0.48165 -0.094375 0.084625 -0.182225 0.1204 -0.2636 0.10415 -0.0781 -0.016275 -0.1432 -0.084625 -0.192 -0.21155 -0.03905 -0.100875 -0.058575 -0.20175 -0.058575 -0.296125 0 -0.081375 0.0065 -0.162725 0.022775 -0.237575 0.029275 -0.13345 0.0846 -0.263625 0.172475 -0.387275 0.1074 -0.159475 0.2213 -0.22455 0.33845 -0.201775 0.078125 0.016275 0.1432 0.0846 0.192025 0.211525 0.03905 0.1009 0.058575 0.201775 0.058575 0.29615 0 0.084625 -0.0065 0.165975 -0.0228 0.240825Z" clip-rule="evenodd" stroke-width="0.25"></path>
  <path fill="#000000" fill-rule="evenodd" d="M9.0337 10.7863c-0.21805 0.2148 -0.32545 0.48815 -0.32545 0.8201 0 0.354725 0.1074 0.644375 0.3222 0.862425 0.214775 0.21805 0.494675 0.328675 0.842875 0.328675 0.1009 0 0.2148 -0.01625 0.338475 -0.052075v-0.5272c-0.1139 0.03255 -0.21155 0.048825 -0.296175 0.048825 -0.172475 0 -0.30915 -0.058575 -0.4133 -0.172475 -0.104125 -0.117175 -0.1562 -0.273375 -0.1562 -0.4719 0 -0.1855 0.052075 -0.33845 0.15295 -0.455625 0.104125 -0.1204 0.23105 -0.178975 0.387275 -0.178975 0.100875 0 0.208275 0.016275 0.32545 0.0488v-0.5272c-0.1074 -0.0293 -0.2278 -0.0423 -0.35475 -0.0423 -0.331925 -0.003275 -0.6053 0.104125 -0.82335 0.318925Zm2.25855 -0.3222c-0.2994 0 -0.533725 0.1009 -0.70295 0.299425 -0.169225 0.1985 -0.250575 0.4784 -0.250575 0.836375 0 0.387275 0.0846 0.683425 0.250575 0.88845 0.165975 0.205025 0.41005 0.30915 0.729 0.30915 0.30915 0 0.5467 -0.104125 0.712675 -0.30915 0.165975 -0.205025 0.2506 -0.494675 0.2506 -0.865675s-0.084625 -0.657375 -0.253825 -0.85915c-0.1725 -0.198525 -0.416575 -0.299425 -0.7355 -0.299425Zm0.257075 1.6923c-0.058575 0.091125 -0.146425 0.136675 -0.257075 0.136675 -0.10415 0 -0.18225 -0.04555 -0.237575 -0.136675 -0.055325 -0.09115 -0.08135 -0.273375 -0.08135 -0.55 0 -0.426325 0.107375 -0.63785 0.325425 -0.63785 0.227825 0 0.34495 0.214775 0.34495 0.647625 -0.003225 0.26685 -0.035775 0.449075 -0.094375 0.540225Zm2.339925 -1.63045 -0.117175 0.497925c-0.029275 0.126925 -0.05855 0.2571 -0.0846 0.390525l-0.0651 0.344975c-0.061825 -0.344975 -0.146425 -0.755025 -0.253825 -1.233425h-0.755025l-0.283125 2.216225h0.56625l0.152975 -1.5263 0.38725 1.5263h0.403575l0.370975 -1.52305 0.159475 1.52305h0.5923l-0.2994 -2.216225H13.88925Zm2.7109 0 -0.11715 0.497925c-0.0293 0.126925 -0.058575 0.2571 -0.084625 0.390525l-0.065075 0.344975c-0.06185 -0.344975 -0.14645 -0.755025 -0.25385 -1.233425h-0.755025l-0.283125 2.216225h0.56625l0.15295 -1.5263 0.387275 1.5263h0.40355l0.36775 -1.52305 0.159475 1.52305h0.5923l-0.2994 -2.216225h-0.7713Zm1.841975 1.3408h0.530475v-0.458875h-0.530475v-0.4068h0.611825v-0.471875h-1.2106v2.216225h1.213875v-0.471875h-0.6151V11.86675Zm2.30085 -0.351475c0.06185 -0.100875 0.094375 -0.205025 0.094375 -0.312425 0 -0.208275 -0.08135 -0.37425 -0.24405 -0.49465 -0.16275 -0.120425 -0.387275 -0.18225 -0.66715 -0.18225h-0.69645v2.216225h0.5988v-1.00885h0.009775l0.4849 1.00885h0.63135l-0.4784 -0.9991c0.1139 -0.05205 0.205025 -0.1269 0.26685 -0.2278Zm-0.917725 -0.0358v-0.5272c0.1432 0.00325 0.244075 0.026025 0.305925 0.0716 0.061825 0.04555 0.0911 0.11715 0.0911 0.2213 0 0.15295 -0.133425 0.23105 -0.397025 0.2343Zm1.3635 -0.693175c-0.21795 0.2148 -0.32535 0.48815 -0.32535 0.8201 0 0.354725 0.1074 0.644375 0.32225 0.862425 0.214825 0.21805 0.494525 0.328675 0.842875 0.328675 0.10085 0 0.214825 -0.01625 0.33835 -0.052075v-0.5272c-0.11375 0.03255 -0.2115 0.048825 -0.29615 0.048825 -0.1724 0 -0.309025 -0.058575 -0.413225 -0.172475 -0.104175 -0.117175 -0.156175 -0.273375 -0.156175 -0.4719 0 -0.1855 0.052 -0.33845 0.15285 -0.455625 0.1042 -0.1204 0.23105 -0.178975 0.387225 -0.178975 0.100875 0 0.2084 0.016275 0.325475 0.0488v-0.5272c-0.1073 -0.0293 -0.227725 -0.0423 -0.354575 -0.0423 -0.3288 -0.003275 -0.6054 0.104125 -0.82355 0.318925Zm1.943025 1.48075V11.8635h0.5303v-0.458875h-0.5303v-0.4068h0.61495v-0.471875h-1.210575v2.216225h1.2139v-0.471875h-0.618275v-0.00325Z" clip-rule="evenodd" stroke-width="0.25"></path>
</svg>