<svg version="1.1" id="Laag_1" xmlns:x="ns_extend;" xmlns:i="ns_ai;" xmlns:graph="ns_graphs;" xmlns="http://www.w3.org/2000/svg" xmlns:xlink="http://www.w3.org/1999/xlink" x="0px" y="0px" viewBox="0 0 500 221.6" style="enable-background:new 0 0 500 221.6;" xml:space="preserve">
 <style type="text/css">
  .st0{fill:url(#SVGID_1_);}
	.st1{fill:url(#SVGID_2_);}
	.st2{fill:url(#SVGID_3_);}
	.st3{fill:url(#SVGID_4_);}
	.st4{fill:url(#SVGID_5_);}
 </style>
 <metadata>
  <sfw xmlns="ns_sfw;">
   <slices>
   </slices>
   <sliceSourceBounds bottomLeftOrigin="true" height="221.6" width="500" x="0" y="0.2">
   </sliceSourceBounds>
  </sfw>
 </metadata>
 <g id="Yoast">
  <g>
   <linearGradient id="SVGID_1_" gradientUnits="userSpaceOnUse" x1="466.05" y1="327" x2="466.05" y2="169.1" gradientTransform="matrix(1 0 0 1 0 -141.7)">
    <stop offset="0" style="stop-color:#570732">
    </stop>
    <stop offset="3.755289e-02" style="stop-color:#610B39">
    </stop>
    <stop offset="0.1547" style="stop-color:#79164B">
    </stop>
    <stop offset="0.2866" style="stop-color:#8C1E59">
    </stop>
    <stop offset="0.4398" style="stop-color:#9A2463">
    </stop>
    <stop offset="0.6334" style="stop-color:#A22768">
    </stop>
    <stop offset="1" style="stop-color:#A4286A">
    </stop>
   </linearGradient>
   <path class="st0" d="M478.7,136.9v-56h20V56.6h-20V27.4h-30.9v29.3h-15.7V81h15.7v52.8c0,30,20.9,47.8,43,51.5l9.2-24.8
			C487.1,158.8,478.8,149.2,478.7,136.9z">
   </path>
   <linearGradient id="SVGID_2_" gradientUnits="userSpaceOnUse" x1="277.2" y1="305.0006" x2="277.2" y2="194.3309" gradientTransform="matrix(1 0 0 1 0 -141.7)">
    <stop offset="0" style="stop-color:#570732">
    </stop>
    <stop offset="3.755289e-02" style="stop-color:#610B39">
    </stop>
    <stop offset="0.1547" style="stop-color:#79164B">
    </stop>
    <stop offset="0.2866" style="stop-color:#8C1E59">
    </stop>
    <stop offset="0.4398" style="stop-color:#9A2463">
    </stop>
    <stop offset="0.6334" style="stop-color:#A22768">
    </stop>
    <stop offset="1" style="stop-color:#A4286A">
    </stop>
   </linearGradient>
   <path class="st1" d="M322.8,128V86c0-1.5-0.1-3-0.2-4.4c-2.7-34-51-33.9-88.3-20.9L245,82.5c24.3-11.6,38.9-8.6,44-2.9
			c0.1,0.1,0.3,0.3,0.4,0.4c0,0,0,0,0,0.1c2.6,3.5,2,9,2,13.4c-31.8,0-65.7,4.2-65.7,39.1c0,26.5,33.2,43.6,68,18.3l5.2,12.4h29.8
			C325.9,148.8,322.8,136.3,322.8,128z M291.6,127.8c-24.5,27.4-46.9,1.6-23.9-9.6c6.8-2.3,15.9-2.4,23.9-2.4V127.8z">
   </path>
   <linearGradient id="SVGID_3_" gradientUnits="userSpaceOnUse" x1="380.7006" y1="305.4028" x2="380.7006" y2="193.6798" gradientTransform="matrix(1 0 0 1 0 -141.7)">
    <stop offset="0" style="stop-color:#570732">
    </stop>
    <stop offset="3.755289e-02" style="stop-color:#610B39">
    </stop>
    <stop offset="0.1547" style="stop-color:#79164B">
    </stop>
    <stop offset="0.2866" style="stop-color:#8C1E59">
    </stop>
    <stop offset="0.4398" style="stop-color:#9A2463">
    </stop>
    <stop offset="0.6334" style="stop-color:#A22768">
    </stop>
    <stop offset="1" style="stop-color:#A4286A">
    </stop>
   </linearGradient>
   <path class="st2" d="M370.3,83.8c0-10.4,16.6-15.2,42.8-3.3l9.1-22c-35.2-10.6-83.3-11.6-83.6,25.2c-0.1,17.7,11.2,27.2,27.5,33.2
			c11.3,4.2,27.6,6.4,27.6,15.4c-0.1,11.8-25.3,13.6-48.4-2.3l-9.3,23.8c31.4,15.6,89.7,16.1,89.4-23.1
			C425,92,370.3,98.8,370.3,83.8z">
   </path>
   <linearGradient id="SVGID_4_" gradientUnits="userSpaceOnUse" x1="66.15" y1="135.6905" x2="66.15" y2="310.8836" gradientTransform="matrix(1 0 0 1 0 -141.7)">
    <stop offset="0" style="stop-color:#77B227">
    </stop>
    <stop offset="0.4669" style="stop-color:#75B027">
    </stop>
    <stop offset="0.635" style="stop-color:#6EAB27">
    </stop>
    <stop offset="0.7549" style="stop-color:#63A027">
    </stop>
    <stop offset="0.8518" style="stop-color:#529228">
    </stop>
    <stop offset="0.9339" style="stop-color:#3C7F28">
    </stop>
    <stop offset="1" style="stop-color:#246B29">
    </stop>
   </linearGradient>
   <path class="st3" d="M98.2,0L53.4,124.3L31.9,57.1H0l35.7,91.8c3,7.8,3,16.5,0,24.3c-4,10.2-10.6,19-26.8,21.2v27.2
			c31.5,0,48.6-19.4,63.8-61.9L132.3,0H98.2z">
   </path>
  </g>
  <linearGradient id="SVGID_5_" gradientUnits="userSpaceOnUse" x1="165.2002" y1="305.5" x2="165.2002" y2="194.7" gradientTransform="matrix(1 0 0 1 0 -141.7)">
   <stop offset="0" style="stop-color:#570732">
   </stop>
   <stop offset="3.755289e-02" style="stop-color:#610B39">
   </stop>
   <stop offset="0.1547" style="stop-color:#79164B">
   </stop>
   <stop offset="0.2866" style="stop-color:#8C1E59">
   </stop>
   <stop offset="0.4398" style="stop-color:#9A2463">
   </stop>
   <stop offset="0.6334" style="stop-color:#A22768">
   </stop>
   <stop offset="1" style="stop-color:#A4286A">
   </stop>
  </linearGradient>
  <path class="st4" d="M165.2,53c-38.6,0-54,27.3-54,56.2c0,30,15.1,54.6,54,54.6c38.7,0,54.1-27.6,54-54.6
		C219.1,76.3,202.4,53,165.2,53z M165.2,140c-15.7,0-23.4-11.7-23.4-30.9s8.3-32.9,23.4-32.9c15,0,23.2,13.7,23.2,32.9
		S180.9,140,165.2,140z">
  </path>
 </g>
</svg>